<?xml version="1.0"?>
<svg xmlns="http://www.w3.org/2000/svg" xmlns:xlink="http://www.w3.org/1999/xlink" version="1.1" id="Capa_1" x="0px" y="0px" width="512px" height="512px" viewBox="0 0 21.933 21.933" style="enable-background:new 0 0 21.933 21.933;" xml:space="preserve" class=""><g><g>
	<path d="M20.419,12.449c-2.364-0.223-3.284-1.899-4.129-3.772c-0.625-1.39-2.137-3.394-3.885-3.321   C10.859,5.42,9.789,4.73,8.727,3.821C6.886,2.245,4.955,1.098,2.499,2.706c0.781,1.082,0.111,2.322-1.4,2.476   c-0.43,0.043-0.881-0.27-1.013,0.479C-0.01,6.194-0.166,6.579,0.522,6.856c0.316,0.13,0.534,0.608,0.705,0.969   c1.053,2.222,3.338,3.78,3.48,6.51c0.016,0.325,0.419,0.762,0.75,0.915c0.734,0.338,0.958,0.998,1.327,1.604   c0.545,0.895,1.185,1.733,2.167,3.148c-0.226-1.91,0.724-1.576,1.443-1.561c0.71,0.016,1.465,0,2.113,0.235   c0.557,0.205,0.857,0.16,1.124-0.311c0.604-1.073,1.668-1.373,2.737-1.419c1.523-0.064,2.876-0.653,4.279-1.103   c1.238-0.398,1.21-1.576,1.282-2.512C22.002,12.399,20.997,12.502,20.419,12.449z" data-original="#121111" class="active-path" data-old_color="#04A404" fill="#7FFFD4"/>
</g></g> </svg>
