<?xml version="1.0"?>
<svg xmlns="http://www.w3.org/2000/svg" xmlns:xlink="http://www.w3.org/1999/xlink" version="1.1" id="Capa_1" x="0px" y="0px" viewBox="0 0 51.892 51.892" style="enable-background:new 0 0 51.892 51.892;" xml:space="preserve" width="512px" height="512px" class=""><g><g>
	<path d="M4.802,29.904c2.241,0.031,4.312,1.365,6.162,3.98c0.916,1.293,1.618,1.637,1.862,1.637   c0.473-0.02,1.325-0.885,1.648-1.436l0.322-0.443c0.321-0.359,3.354-3.627,7.285-3.389c1.587,0.096,3.892,0.807,5.866,3.65   c0.561,0.805,1.111,1.258,1.561,1.271h0.002c0.668,0,1.578-0.633,2.201-1.293c0.523-0.908,2.059-3.101,4.717-3.455   c2.305-0.31,4.537,0.808,6.627,3.258c0.285,0.339,0.545,0.593,0.775,0.785c6.275-4.36,8.062-13.453,8.062-13.453H30.603   l-0.926-3.704h-6.604l-1.266-4.365h-6.169l0.949,4.364H8.388l0.926,3.704H0.981C0.981,21.014,2.561,25.656,4.802,29.904z    M35.392,24.923h2.381v2.381h-2.381V24.923z M31.38,24.923h2.383v2.381H31.38V24.923z M27.255,24.923h2.383v2.381h-2.383   C27.255,27.304,27.255,24.923,27.255,24.923z M23.246,24.923h2.382v2.381h-2.382V24.923z M19.498,24.923h2.381v2.381h-2.381V24.923   z M15.485,24.923h2.387v2.381h-2.387V24.923z M11.363,24.923h2.387v2.381h-2.387V24.923z M47.394,34.294l2.152,1.211   c-0.064,0.107-1.531,2.686-4.154,2.943c-1.795,0.182-3.566-0.746-5.27-2.744c-0.803-0.938-1.98-2.021-3.043-1.885   c-1.109,0.147-1.84,1.598-1.848,1.61l-0.062,0.134l-0.092,0.114c-0.102,0.123-2.482,3.013-5.596,2.924   c-1.791-0.063-3.377-1.073-4.713-2.995c-0.857-1.24-1.781-1.873-2.812-1.935c-1.853-0.106-3.64,1.623-3.985,1.983   c-0.396,0.621-2.188,3.172-4.866,3.287c-0.062,0.002-0.129,0.004-0.188,0.004c-1.829,0-3.547-1.117-5.112-3.332   c-0.77-1.09-1.934-2.391-3.091-2.287c-1.206,0.089-2.246,1.61-2.52,2.14L0,34.339c0.172-0.334,1.756-3.272,4.539-3.474   c1.85-0.135,3.629,0.984,5.278,3.321c0.763,1.075,1.938,2.335,3.187,2.291c1.37-0.06,2.599-1.647,2.921-2.198l0.144-0.199   c0.111-0.125,2.765-3.069,6.039-2.872c1.812,0.108,3.393,1.114,4.693,2.989c0.867,1.25,1.801,1.902,2.771,1.937   c1.637,0.065,3.182-1.545,3.518-1.926c0.324-0.599,1.533-2.552,3.666-2.837c1.738-0.229,3.504,0.685,5.248,2.731   c0.787,0.921,1.979,2.007,3.141,1.89C46.253,35.888,47.148,34.736,47.394,34.294z" data-original="#000000" class="active-path" data-old_color="#00FFBC" fill="#01B27F"/>
</g></g> </svg>
